HIERARCHY
ROOT Hips
{
  OFFSET 0.000000 0.000000 0.000000
  CHANNELS 6 Xposition Yposition Zposition Xrotation Yrotation Zrotation
  JOINT Spine
  {
    OFFSET 0.211591 24.227834 -3.764787
    CHANNELS 3 Xrotation Yrotation Zrotation
    JOINT Chest
    {
      OFFSET 0.211591 24.227834 -3.764787
      CHANNELS 3 Xrotation Yrotation Zrotation
      JOINT Neck
      {
        OFFSET -1.100772 8.441563 -3.430650
        CHANNELS 3 Xrotation Yrotation Zrotation
        JOINT Head
        {
          OFFSET -1.192129 7.757112 -7.601908
          CHANNELS 3 Xrotation Yrotation Zrotation
          End Site
          {
            OFFSET -0.357639 2.327134 -2.280572
          }
        }
      }
      JOINT LeftShoulder
      {
        OFFSET 17.192089 0.613400 -1.554494
        CHANNELS 3 Xrotation Yrotation Zrotation
        JOINT LeftArm
        {
          OFFSET 6.822346 -20.001605 -11.416031
          CHANNELS 3 Xrotation Yrotation Zrotation
          JOINT LeftForeArm
          {
            OFFSET -10.811707 -3.287858 -20.004664
            CHANNELS 3 Xrotation Yrotation Zrotation
            JOINT LeftHand
            {
              OFFSET -2.972239 -0.032078 -2.791873
              CHANNELS 3 Xrotation Yrotation Zrotation
              End Site
              {
                OFFSET -0.891672 -0.009623 -0.837562
              }
            }
          }
        }
      }
      JOINT RightShoulder
      {
        OFFSET -17.192089 -0.613400 1.554494
        CHANNELS 3 Xrotation Yrotation Zrotation
        JOINT RightArm
        {
          OFFSET -7.078612 -20.128798 -9.457155
          CHANNELS 3 Xrotation Yrotation Zrotation
          JOINT RightForeArm
          {
            OFFSET 6.068787 -1.370308 -22.325569
            CHANNELS 3 Xrotation Yrotation Zrotation
            JOINT RightHand
            {
              OFFSET 2.627653 0.279547 -3.282648
              CHANNELS 3 Xrotation Yrotation Zrotation
              End Site
              {
                OFFSET 0.788296 0.083864 -0.984794
              }
            }
          }
        }
      }
    }
  }
  JOINT LeftUpLeg
  {
    OFFSET 11.367086 0.027478 -2.758015
    CHANNELS 3 Xrotation Yrotation Zrotation
    JOINT LeftLeg
    {
      OFFSET 2.451199 -39.057141 -4.768226
      CHANNELS 3 Xrotation Yrotation Zrotation
      JOINT LeftFoot
      {
        OFFSET 10.058204 -39.973237 0.774249
        CHANNELS 3 Xrotation Yrotation Zrotation
        End Site
        {
          OFFSET 3.017461 -11.991971 0.232275
        }
      }
    }
  }
  JOINT RightUpLeg
  {
    OFFSET -11.367086 -0.027478 2.758015
    CHANNELS 3 Xrotation Yrotation Zrotation
    JOINT RightLeg
    {
      OFFSET -4.668361 -37.080477 -5.635053
      CHANNELS 3 Xrotation Yrotation Zrotation
      JOINT RightFoot
      {
        OFFSET -2.542494 -41.040053 5.594103
        CHANNELS 3 Xrotation Yrotation Zrotation
        End Site
        {
          OFFSET -0.762748 -12.312016 1.678231
        }
      }
    }
  }
}
MOTION
Frames: 10
Frame Time: 0.083333
6.360846 60.000000 18.258120 -1.205293 -0.044639 -0.235813 -1.205293 -0.044639 -0.235813 -1.243356 -1.481884 -2.959401 -2.032140 -3.527296 -2.892646 5.000000 0.000000 0.000000 27.492183 -17.076446 30.766261 24.391074 -6.332087 -2.499652 0.000000 0.000000 0.000000 0.000000 0.000000 0.000000 19.855172 -9.528988 2.325804 9.503021 -4.445086 0.462923 141.866734 -43.202785 -122.837559 0.000000 0.000000 0.000000 13.252467 -1.024093 7.733999 6.135266 1.216574 8.902665 0.000000 0.000000 0.000000 -17.587753 2.183487 -4.873656 -15.240668 0.931969 -0.108650 0.000000 0.000000 0.000000
4.930019 60.000000 19.197261 -2.439222 -0.519042 -3.002252 -2.439222 -0.519042 -3.002252 0.201373 -1.778814 -4.495745 -0.875202 -4.966977 -4.631992 5.000000 0.000000 0.000000 25.953268 -12.273298 22.808763 27.975285 -5.702110 -2.934605 0.000000 0.000000 0.000000 0.000000 0.000000 0.000000 20.316532 -14.205616 8.681896 6.161498 -5.478651 0.389895 0.000000 0.000000 0.000000 0.000000 0.000000 0.000000 16.749177 -1.109065 7.953579 6.136904 1.218456 8.943084 0.000000 0.000000 0.000000 -17.730658 2.156087 -8.391384 -22.340732 1.095624 -0.488062 0.000000 0.000000 0.000000
3.747599 60.000000 14.963378 -2.923228 -0.780750 -4.435576 -2.923228 -0.780750 -4.435576 1.331327 -1.810214 -5.341780 0.462388 -5.906131 -6.083181 5.000000 0.000000 0.000000 5.461069 -1.867217 5.649665 34.039037 -4.127469 -3.760059 0.000000 0.000000 0.000000 0.000000 0.000000 0.000000 12.385127 -12.433741 11.753806 8.218318 -5.308465 0.404683 0.000000 0.000000 0.000000 0.000000 0.000000 0.000000 19.719799 -1.169218 8.085985 7.043847 1.373250 9.188041 0.000000 0.000000 0.000000 -19.862766 2.273430 -8.245881 -29.134483 0.245235 -4.080544 0.000000 0.000000 0.000000
2.581564 60.000000 8.651485 -1.789860 -0.713338 -4.232385 -1.789860 -0.713338 -4.232385 0.310257 -1.879328 -4.745734 0.190055 -6.182148 -6.237508 5.000000 0.000000 0.000000 1.874017 5.289769 -7.625477 24.569883 -4.344304 -2.630321 0.000000 0.000000 0.000000 0.000000 0.000000 0.000000 7.764084 -6.297241 5.342894 7.588979 -2.724409 0.433661 0.000000 0.000000 0.000000 0.000000 0.000000 0.000000 17.172922 -1.009881 7.559760 3.818500 0.811730 10.574105 0.000000 0.000000 0.000000 -17.299976 2.169202 -10.336719 -30.266029 1.257740 -1.743372 0.000000 0.000000 0.000000
1.711049 60.000000 3.909007 -0.048651 -0.576044 -3.608218 -0.048651 -0.576044 -3.608218 0.034062 -1.269638 -3.105187 -0.134536 -3.689256 -3.683184 5.000000 0.000000 0.000000 2.161892 5.500052 -7.810414 19.484395 -1.247157 -2.002327 0.000000 0.000000 0.000000 0.000000 0.000000 0.000000 1.898398 0.147144 -1.673741 9.871862 0.519648 0.561097 0.000000 0.000000 0.000000 0.000000 0.000000 0.000000 10.280387 -0.850167 6.790620 -1.722913 -0.075287 11.096914 0.000000 0.000000 0.000000 -15.893210 2.106075 -14.597526 -28.812364 3.095484 3.036427 0.000000 0.000000 0.000000
2.164120 60.000000 3.211013 2.971619 -0.317770 -2.073728 2.971619 -0.317770 -2.073728 -0.147305 -0.232145 -0.518155 -0.593411 0.088330 0.207053 5.000000 0.000000 0.000000 4.548146 4.278535 -4.486860 23.451911 0.145633 -2.460147 -160.448822 43.062618 -124.110505 0.000000 0.000000 0.000000 -2.763693 1.231644 -0.339415 12.401206 2.152166 0.740428 0.000000 0.000000 0.000000 0.000000 0.000000 0.000000 3.354597 -0.507966 4.341123 -3.544015 -0.361759 11.065508 0.000000 0.000000 0.000000 -18.136041 2.072259 -15.398342 -23.265311 3.106943 4.631210 0.000000 0.000000 0.000000
3.084404 60.000000 4.385714 4.788507 0.086277 1.215588 4.788507 0.086277 1.215588 -0.136700 0.922240 2.344342 -0.215506 2.641957 2.782788 5.000000 0.000000 0.000000 11.593012 3.084850 1.668155 27.555756 1.833409 -2.877138 159.123515 29.826293 -122.584275 0.000000 0.000000 0.000000 -7.691342 0.783151 4.762380 10.947301 3.539440 0.687036 0.000000 0.000000 0.000000 0.000000 0.000000 0.000000 -0.380058 -0.080703 0.352221 -0.633699 0.166122 13.888729 0.000000 0.000000 0.000000 -20.450892 2.033654 -15.594530 -18.080167 2.899058 5.738989 0.000000 0.000000 0.000000
2.495143 60.000000 4.770275 5.409916 0.408067 4.264097 5.409916 0.408067 4.264097 0.370970 1.537279 3.827068 0.735561 4.131068 4.376424 5.000000 0.000000 0.000000 17.420421 5.598867 1.209815 27.370475 3.637290 -2.846207 161.542115 29.074520 -124.198908 0.000000 0.000000 0.000000 -9.019121 0.631275 6.349685 11.789141 3.622251 0.758100 0.000000 0.000000 0.000000 0.000000 0.000000 0.000000 -3.640771 -0.164728 -0.704045 1.053409 0.405772 16.674117 0.000000 0.000000 0.000000 -17.839356 2.087094 -14.189309 -16.720688 2.669862 5.498925 0.000000 0.000000 0.000000
0.686243 60.000000 8.894072 5.189963 0.478081 4.818761 5.189963 0.478081 4.818761 0.398595 1.707070 4.272933 1.043735 4.559886 4.890479 5.000000 0.000000 0.000000 14.778910 5.011676 0.618126 23.967455 3.389489 -2.558499 0.000000 0.000000 0.000000 0.000000 0.000000 0.000000 -5.330276 -1.171827 7.148758 11.141425 3.184585 0.720880 134.223640 -41.286205 95.655464 0.000000 0.000000 0.000000 -2.984896 -0.126569 -0.863174 3.201678 0.623129 18.804206 0.000000 0.000000 0.000000 -22.214170 2.022408 -14.065189 -12.621285 2.020360 4.935472 0.000000 0.000000 0.000000
-0.307804 60.000000 16.485582 2.869095 0.506147 4.232701 2.869095 0.506147 4.232701 0.233199 1.184974 3.007505 0.834249 3.294093 3.571937 5.000000 0.000000 0.000000 7.245546 2.762215 -0.755077 18.273323 1.485079 -2.038254 0.000000 0.000000 0.000000 0.000000 0.000000 0.000000 -1.936726 -0.489068 2.832305 5.969386 1.052490 0.509129 0.000000 0.000000 0.000000 0.000000 0.000000 0.000000 -0.938450 -0.453503 2.580685 5.356933 0.824207 17.033863 0.000000 0.000000 0.000000 -28.163685 1.987371 -14.076646 -10.807131 1.566188 4.373344 0.000000 0.000000 0.000000
